<svg width="200" height="200" viewBox="0 0 232 246" fill="none" xmlns="http://www.w3.org/2000/svg">
<path d="M4.78296 100.68L15.3018 84.902L37.8423 72.8804L76.9125 68.3723H117.485L161.064 68.3723L202.388 75.8858L219.669 87.156L227.182 102.183L231 117.5L222.674 148.015L214.409 172.81L202.388 196.853L187.5 214.5L170.08 230.664L117.485 243.437L82.9233 235.923L51.3666 217.891L32 196.853L18.3072 175.815L6.28566 132.988L3 117.5L4.78296 100.68Z" fill="#CECECE"/>
<path d="M227.341 104.302C227.341 107.67 224.736 110.493 219.493 112.824C214.275 115.144 206.62 116.888 196.928 118.178C177.553 120.757 150.197 121.5 118.297 121.5C86.3973 121.5 57.9758 120.806 37.5353 118.277C27.3098 117.011 19.1198 115.29 13.4987 112.985C7.85905 110.672 5.02341 107.868 5.00014 104.541C7.71741 88.5954 19.9832 79.0787 39.6717 73.5438C59.3855 68.0019 86.3976 66.5 118.297 66.5C150.181 66.5 177.506 69.1251 196.844 75.2023C216.215 81.2902 227.341 90.7558 227.341 104.302Z" fill="#F5C88F" stroke="black"/>
<path d="M227.499 133.257C219.86 167.635 207.293 195.1 189.051 213.951C170.864 232.746 146.9 243.12 116.101 243.12C54.8828 243.12 15.8338 190.498 4.71345 133.309C1.40505 116.295 2.92936 103.829 7.75511 94.6354C12.5714 85.4602 20.8354 79.2426 31.6326 75.0366C42.4571 70.8199 55.7007 68.6778 70.236 67.6028C84.7606 66.5286 100.434 66.5276 116.101 66.5276C131.767 66.5276 147.562 66.5286 162.237 67.6029C176.925 68.6781 190.35 70.8208 201.296 75.0392C212.219 79.2483 220.528 85.4651 225.25 94.6224C229.981 103.795 231.28 116.245 227.499 133.257Z" stroke="black" stroke-width="4"/>
<rect x="203.292" y="10.2019" width="7.4348" height="103.476" transform="rotate(34.4989 203.292 10.2019)" fill="#F2E5B5" stroke="#D3C7B5" stroke-width="0.25"/>
<rect x="142.997" y="94.783" width="10.8869" height="6.32487" fill="#F5C88F"/>
<rect x="183.426" y="1.78153" width="7.4348" height="103.495" transform="rotate(11.981 183.426 1.78153)" fill="#F2E5B5" stroke="#D3C7B5" stroke-width="0.25"/>
<rect x="160.289" y="100.264" width="12.4878" height="7.68479" fill="#F5C88F"/>
<g opacity="0.78">
<path d="M61.14 89.5657V89.5854L61.1536 89.5999C61.945 90.4447 62.2639 91.1748 62.2294 91.7918C62.1951 92.4066 61.8086 92.9248 61.1514 93.3445C59.8344 94.1856 57.4604 94.6103 54.8267 94.6103C52.1988 94.6103 50.5363 94.0086 49.3748 93.0789C48.212 92.1481 47.5454 90.8841 46.9179 89.5443C46.7197 89.1213 46.6237 88.81 46.6118 88.5845C46.6059 88.4724 46.6209 88.3838 46.6525 88.3137C46.6839 88.2442 46.7328 88.1902 46.7996 88.1486C46.9359 88.0638 47.1471 88.0301 47.4313 88.0334C47.7138 88.0367 48.059 88.0761 48.4568 88.1292C48.5752 88.145 48.6981 88.162 48.8252 88.1796C50.4023 88.3976 52.6226 88.7047 54.8435 87.9144C56.0353 87.4903 57.0265 87.2094 57.8428 87.0699C58.6597 86.9302 59.2974 86.933 59.7843 87.0726C60.2689 87.2116 60.6056 87.4865 60.8227 87.8978C61.041 88.3113 61.14 88.866 61.14 89.5657Z" fill="#2BAE6F" stroke="black" stroke-width="0.1"/>
<path d="M46.8728 88.4109C48.4636 91.264 48.4636 91.264 50.0545 91.264L53.236 91.264L56.4177 91.264L59.5993 91.264L61.3493 89.9054" stroke="#234635" stroke-width="0.05"/>
<line y1="-0.125" x2="3.24093" y2="-0.125" transform="matrix(0.839282 -0.543696 0.494192 0.869353 61.5078 90.2449)" stroke="black" stroke-width="0.25"/>
<path d="M51.6341 91.2761L48.4637 88.3092" stroke="#234635" stroke-width="0.06"/>
<path d="M54.8155 91.2761L51.6451 88.6148" stroke="#234635" stroke-width="0.06"/>
<path d="M57.7691 91.2428L55.2208 87.996" stroke="#234635" stroke-width="0.06"/>
<path d="M59.8227 91.0784L58.1761 87.2667" stroke="#234635" stroke-width="0.06"/>
<path d="M54.8266 91.2639L52.1715 94.1523" stroke="#234635" stroke-width="0.06"/>
<path d="M50.8288 91.2835L49.5881 92.9237" stroke="#234635" stroke-width="0.06"/>
<path d="M58.0087 91.2637L54.9347 94.4277" stroke="#234635" stroke-width="0.06"/>
<path d="M59.9393 90.9699L58.1726 94.1806" stroke="#234635" stroke-width="0.06"/>
</g>
<g opacity="0.67">
<path d="M85.4592 105.567L85.4718 105.552L85.4709 105.533C85.4367 104.774 85.589 104.276 85.8651 103.982C86.1398 103.691 86.5475 103.591 87.0512 103.654C88.062 103.781 89.4245 104.561 90.738 105.668C92.0469 106.771 92.6169 107.771 92.7987 108.725C92.9809 109.681 92.7751 110.599 92.5164 111.541C92.4349 111.838 92.3507 112.033 92.2623 112.15C92.2185 112.208 92.1751 112.245 92.1323 112.265C92.0902 112.286 92.0462 112.292 91.9983 112.286C91.8994 112.272 91.783 112.203 91.6431 112.083C91.5045 111.963 91.3497 111.799 91.1738 111.604C91.1215 111.547 91.0674 111.486 91.0114 111.424C90.3178 110.651 89.3382 109.558 87.8885 109.024C87.1134 108.738 86.4999 108.464 86.0343 108.192C85.5683 107.92 85.2538 107.652 85.0727 107.38C84.8928 107.11 84.8431 106.834 84.9092 106.539C84.976 106.241 85.1614 105.921 85.4592 105.567Z" fill="#2BAE6F" stroke="black" stroke-width="0.1"/>
<path d="M92.0723 112.139C92.4961 110.025 92.4961 110.025 91.7024 109.356L90.1149 108.019L88.5274 106.681L86.9399 105.344L85.487 105.296" stroke="#234635" stroke-width="0.05"/>
<line y1="-0.125" x2="2.12406" y2="-0.125" transform="matrix(-0.992995 -0.118158 0.18855 -0.982064 85.5525 105.057)" stroke="black" stroke-width="0.25"/>
<path d="M90.9193 108.687L91.235 111.522" stroke="#234635" stroke-width="0.06"/>
<path d="M89.3312 107.348L89.7774 110.029" stroke="#234635" stroke-width="0.06"/>
<path d="M87.8437 106.124L87.7296 108.84" stroke="#234635" stroke-width="0.06"/>
<path d="M86.749 105.343L85.9439 107.966" stroke="#234635" stroke-width="0.06"/>
<path d="M89.3212 107.35L91.8786 107.003" stroke="#234635" stroke-width="0.06"/>
<path d="M91.3241 109.02L92.6431 108.711" stroke="#234635" stroke-width="0.06"/>
<path d="M87.7335 106.013L90.6175 105.702" stroke="#234635" stroke-width="0.06"/>
<path d="M86.6441 105.35L88.8958 104.466" stroke="#234635" stroke-width="0.06"/>
</g>
<g opacity="0.7">
<path d="M125.608 110.909L125.618 110.926L125.615 110.945C125.475 111.764 125.573 112.325 125.834 112.68C126.094 113.034 126.525 113.195 127.081 113.192C128.197 113.186 129.783 112.517 131.358 111.488C132.929 110.462 133.684 109.451 134.011 108.439C134.338 107.425 134.238 106.403 134.085 105.348C134.037 105.015 133.972 104.792 133.891 104.653C133.851 104.584 133.808 104.538 133.764 104.51C133.72 104.482 133.672 104.469 133.619 104.47C133.508 104.472 133.371 104.532 133.203 104.645C133.036 104.756 132.846 104.915 132.628 105.102C132.564 105.158 132.497 105.216 132.428 105.277C131.57 106.025 130.36 107.081 128.715 107.472C127.835 107.681 127.132 107.898 126.589 108.132C126.046 108.367 125.668 108.617 125.434 108.889C125.201 109.16 125.109 109.454 125.141 109.783C125.174 110.115 125.332 110.487 125.608 110.909Z" fill="#2BAE6F" stroke="black" stroke-width="0.1"/>
<path d="M133.677 104.645C133.851 106.991 133.851 106.991 132.899 107.613L130.995 108.856L129.091 110.1L127.187 111.343L125.603 111.206" stroke="#234635" stroke-width="0.05"/>
<path d="M131.961 108.236L132.687 105.203" stroke="#234635" stroke-width="0.06"/>
<path d="M130.056 109.479L130.903 106.631" stroke="#234635" stroke-width="0.06"/>
<path d="M128.276 110.613L128.519 107.655" stroke="#234635" stroke-width="0.06"/>
<path d="M126.978 111.318L126.461 108.368" stroke="#234635" stroke-width="0.06"/>
<path d="M130.045 109.477L132.775 110.185" stroke="#234635" stroke-width="0.06"/>
<path d="M132.444 107.929L133.838 108.434" stroke="#234635" stroke-width="0.06"/>
<path d="M128.141 110.72L131.23 111.432" stroke="#234635" stroke-width="0.06"/>
<path d="M126.868 111.299L129.196 112.549" stroke="#234635" stroke-width="0.06"/>
</g>
<g opacity="0.7">
<path d="M172.983 110.585L172.987 110.604L172.976 110.621C172.533 111.323 172.408 111.879 172.513 112.307C172.617 112.733 172.953 113.048 173.468 113.258C174.501 113.681 176.222 113.672 178.071 113.326C179.916 112.982 181.001 112.338 181.691 111.529C182.382 110.718 182.683 109.736 182.946 108.703C183.029 108.377 183.055 108.146 183.033 107.987C183.023 107.908 183.001 107.849 182.971 107.806C182.942 107.763 182.902 107.733 182.852 107.713C182.75 107.672 182.6 107.675 182.401 107.715C182.204 107.754 181.968 107.827 181.695 107.917C181.614 107.944 181.53 107.972 181.443 108.001C180.364 108.363 178.841 108.873 177.172 108.603C176.279 108.458 175.546 108.389 174.955 108.397C174.364 108.405 173.919 108.491 173.598 108.652C173.279 108.813 173.082 109.049 172.985 109.366C172.887 109.685 172.891 110.089 172.983 110.585Z" fill="#2BAE6F" stroke="black" stroke-width="0.1"/>
<path d="M182.839 107.897C182.099 110.131 182.099 110.131 180.982 110.339L178.746 110.757L176.51 111.174L174.275 111.592L172.865 110.857" stroke="#234635" stroke-width="0.05"/>
<path d="M179.875 110.555L181.71 108.033" stroke="#234635" stroke-width="0.06"/>
<path d="M177.639 110.972L179.514 108.667" stroke="#234635" stroke-width="0.06"/>
<path d="M175.56 111.336L176.92 108.697" stroke="#234635" stroke-width="0.06"/>
<path d="M174.092 111.488L174.747 108.566" stroke="#234635" stroke-width="0.06"/>
<path d="M177.63 110.965L179.879 112.667" stroke="#234635" stroke-width="0.06"/>
<path d="M180.44 110.457L181.533 111.458" stroke="#234635" stroke-width="0.06"/>
<path d="M175.395 111.382L177.974 113.225" stroke="#234635" stroke-width="0.06"/>
<path d="M173.997 111.428L175.667 113.476" stroke="#234635" stroke-width="0.06"/>
</g>
<g opacity="0.5">
<path d="M185.259 86.7615L185.251 86.7745L185.237 86.7804C184.761 86.9753 184.464 87.2166 184.306 87.4805C184.149 87.7432 184.126 88.0343 184.211 88.3377C184.383 88.9489 184.992 89.6042 185.805 90.1371C186.612 90.6656 187.284 90.7466 187.892 90.5919C188.503 90.4362 189.056 90.0406 189.622 89.6013C189.8 89.4632 189.915 89.3524 189.98 89.2614C190.044 89.1707 190.054 89.1072 190.04 89.0584C190.025 89.0068 189.978 88.9558 189.891 88.9009C189.806 88.8468 189.69 88.7943 189.552 88.736C189.511 88.7186 189.468 88.7008 189.424 88.6823C188.875 88.4547 188.092 88.1294 187.616 87.334C187.365 86.9138 187.137 86.5963 186.926 86.3744C186.714 86.1521 186.522 86.0295 186.342 85.9918C186.165 85.9546 185.993 85.9984 185.815 86.1257C185.636 86.2541 185.453 86.4664 185.259 86.7615Z" fill="#2BAE6F" stroke="black" stroke-width="0.1"/>
<path d="M189.972 89.1519C188.689 90.0346 188.689 90.0346 188.196 89.7116L187.211 89.0657L186.225 88.4197L185.239 87.7738L185.073 86.8444" stroke="#234635" stroke-width="0.05"/>
<path d="M187.705 89.3967L189.509 88.7866" stroke="#234635" stroke-width="0.06"/>
<path d="M186.719 88.7506L188.438 88.2696" stroke="#234635" stroke-width="0.06"/>
<path d="M185.813 88.1374L187.502 87.2827" stroke="#234635" stroke-width="0.06"/>
<path d="M185.219 87.6447L186.792 86.3699" stroke="#234635" stroke-width="0.06"/>
<path d="M186.719 88.7433L186.742 90.5029" stroke="#234635" stroke-width="0.06"/>
<path d="M187.946 89.5638L187.88 90.5151" stroke="#234635" stroke-width="0.06"/>
<path d="M185.733 88.0974L185.809 90.0586" stroke="#234635" stroke-width="0.06"/>
<path d="M185.21 87.5812L184.872 89.3044" stroke="#234635" stroke-width="0.06"/>
</g>
<path opacity="0.8" d="M89.4662 77.6079C88.2407 78.2327 87.3219 78.748 87.2827 79.6492C88.2019 79.7135 89.6441 80.025 90.5404 80.1436C91.1655 80.2262 91.8094 80.3274 92.4091 80.4471C93.0373 80.5724 93.5694 80.7945 94.2228 80.8925C95.1565 81.0325 98.5543 80.0132 98.6883 79.6492C98.9201 79.0195 99.0212 79.5254 97.0589 78.9925C97.0935 78.9756 93.8002 78.0279 93.8002 78.0279C91.2852 77.3353 92.6768 77.8298 91.3398 77.3583C91.243 77.3241 90.6479 77.0159 90.5204 77.0695C90.1381 77.23 89.8143 77.4304 89.4662 77.6079Z" fill="#C34312" stroke="black" stroke-width="0.15" stroke-linecap="round" stroke-linejoin="round"/>
<path opacity="0.7" d="M158.105 99.6541C159.33 100.279 160.249 100.794 160.288 101.695C159.369 101.76 157.927 102.071 157.031 102.19C156.406 102.272 155.762 102.374 155.162 102.493C154.534 102.619 154.002 102.841 153.348 102.939C152.415 103.079 149.017 102.059 148.883 101.695C148.651 101.066 148.55 101.572 150.512 101.039C150.478 101.022 153.771 100.074 153.771 100.074C156.286 99.3814 154.894 99.8759 156.231 99.4044C156.328 99.3703 156.923 99.0621 157.051 99.1156C157.433 99.2761 157.757 99.4766 158.105 99.6541Z" fill="#C34312" stroke="black" stroke-width="0.15" stroke-linecap="round" stroke-linejoin="round"/>
<path opacity="0.7" d="M141.041 77.1474C141.22 75.7836 141.399 74.7453 142.235 74.4071C142.603 75.2519 143.378 76.5069 143.79 77.312C144.077 77.8735 144.387 78.4466 144.701 78.9717C145.029 79.5219 145.416 79.9491 145.727 80.5321C146.171 81.3653 146.346 84.9083 146.048 85.1563C145.532 85.5853 146.043 85.5115 144.884 83.8403C144.88 83.8785 142.886 81.0916 142.886 81.0916C141.392 78.9529 142.324 80.0991 141.432 78.9967C141.368 78.9169 140.878 78.4591 140.886 78.321C140.909 77.9071 140.99 77.5348 141.041 77.1474Z" fill="#C34312" stroke="black" stroke-width="0.15" stroke-linecap="round" stroke-linejoin="round"/>
<path d="M67.2021 105.767C67.1347 104.977 67.4259 104.286 66.6492 103.825C65.9922 104.968 64.9341 104.893 64.2437 105.982C63.7622 106.742 63.2519 107.518 62.7541 108.228C62.2325 108.972 61.6876 109.55 61.174 110.339C60.44 111.466 61.4665 112.509 62.0289 112.683C62.5914 112.858 64.0001 111.104 64.0001 111.104C66.2578 108.212 64.9095 109.761 66.2017 108.271C66.2953 108.163 66.958 107.544 66.9935 107.357C67.1001 106.796 67.133 106.292 67.2021 105.767Z" fill="#C34312" fill-opacity="0.8" stroke="black" stroke-width="0.15" stroke-linecap="round" stroke-linejoin="round"/>
<path d="M116.921 99.0393C117.453 99.4265 117.454 99.0392 117.454 100.509C116.921 101.772 117.454 100.509 116.596 102.126C115.727 102.707 114.839 103.318 114.025 103.91C113.172 104.531 112.506 105.157 111.604 105.774C110.313 106.655 109.168 105.705 108.987 105.141C108.806 104.577 110.821 102.93 110.821 102.93C114.142 100.28 112.359 101.843 114.074 100.345C114.198 100.236 114.913 99.4834 115.125 99.4264C115.759 99.2557 116.328 99.1674 116.921 99.0393Z" fill="#C34312" stroke="black" stroke-width="0.15" stroke-linecap="round" stroke-linejoin="round"/>
<path d="M120.97 83.903L122.329 82.8431C122.481 82.7242 122.701 82.7513 122.82 82.9037L126.002 86.9819C126.121 87.1343 126.094 87.3542 125.941 87.4731L124.583 88.5331C124.431 88.652 124.211 88.6248 124.092 88.4724L120.91 84.3942C120.791 84.2418 120.818 84.0219 120.97 83.903Z" fill="#E7E9C1" stroke="#E3D5A1" stroke-width="0.1"/>
<path d="M96.6494 92.3458L98.7975 93.23C98.823 93.2406 98.8352 93.2698 98.8247 93.2953L96.6272 98.6334C96.6167 98.659 96.5875 98.6711 96.562 98.6606L94.4139 97.7764C94.3883 97.7659 94.3762 97.7366 94.3867 97.7111L96.5841 92.373C96.5946 92.3474 96.6238 92.3353 96.6494 92.3458Z" fill="#E7E9C1" stroke="#E3D5A1" stroke-width="0.1"/>
<path d="M205.682 95.5038L208.557 96.7275L205.324 104.322L202.449 103.099L205.682 95.5038Z" fill="#E7E9C1" stroke="#E3D5A1" stroke-width="0.1"/>
<path d="M145.119 113.294L144.863 110.291L155.297 109.401L155.553 112.403L145.119 113.294Z" fill="#E7E9C1" stroke="#E3D5A1" stroke-width="0.1"/>
<path d="M36.1071 99.312L33.8764 100.262C33.6986 100.337 33.6158 100.543 33.6915 100.721L36.6503 107.671C36.726 107.849 36.9315 107.932 37.1094 107.856L39.34 106.907C39.5179 106.831 39.6007 106.626 39.525 106.448L36.5662 99.497C36.4905 99.3191 36.285 99.2363 36.1071 99.312Z" fill="#E7E9C1" stroke="#E3D5A1" stroke-width="0.1"/>
</svg>
